<svg width="249" height="235" viewBox="0 0 249 235" fill="none" xmlns="http://www.w3.org/2000/svg">
<path d="M9.954 234.305H238.395C241.446 234.305 244.291 233.059 246.2 230.889C247.859 229.007 248.593 226.619 248.278 224.166C242.921 182.432 217.259 147.655 182.128 129.113C167.279 143.962 146.78 153.159 124.175 153.159C101.57 153.159 81.07 143.962 66.222 129.113C31.09 147.65 5.423 182.432 0.0710005 224.166C-0.243999 226.619 0.495 229.012 2.149 230.889C4.058 233.059 6.903 234.305 9.954 234.305Z" fill="#8F8F8F"/>
<path d="M72.699 120.09C74.032 121.488 75.424 122.82 76.865 124.109C89.451 135.368 106.002 142.275 124.174 142.275C142.346 142.275 158.897 135.362 171.483 124.109C172.924 122.82 174.317 121.487 175.649 120.09C176.976 118.692 178.271 117.262 179.489 115.761C189.35 103.55 195.289 88.044 195.289 71.161C195.289 31.945 163.383 0.0450001 124.173 0.0450001C84.963 0.0450001 53.059 31.95 53.059 71.16C53.059 88.043 58.998 103.55 68.859 115.76C70.072 117.262 71.366 118.687 72.699 120.09Z" fill="#8F8F8F"/>
</svg>
