<svg width="164" height="164" viewBox="0 0 164 164" fill="none" xmlns="http://www.w3.org/2000/svg">
<g clip-path="url(#clip0_9_118)">
<path d="M34.4579 60.8459C32.5293 60.8459 30.9688 62.4084 30.9688 64.3351V131.069H17.0115V64.3354C17.0115 62.4084 15.4509 60.8462 13.5223 60.8462C11.5937 60.8462 10.0331 62.4087 10.0331 64.3354V134.122C10.0331 136.049 12.03 138.047 13.9586 138.047H34.8945C36.8231 138.047 37.9477 136.049 37.9477 134.122V64.3354C37.9474 62.4084 36.3865 60.8459 34.4579 60.8459Z" fill="white"/>
<path d="M72.8407 60.8459C70.9121 60.8459 69.3515 62.4084 69.3515 64.3351V131.069H55.3942V64.3354C55.3942 62.4084 53.8337 60.8462 51.9051 60.8462C49.9765 60.8462 48.4159 62.4087 48.4159 64.3354V134.122C48.4159 136.049 50.4127 138.047 52.3413 138.047H73.2773C75.2059 138.047 76.3305 136.049 76.3305 134.122V64.3354C76.3299 62.4084 74.7693 60.8459 72.8407 60.8459Z" fill="white"/>
<path d="M111.223 60.8459C109.294 60.8459 107.734 62.4084 107.734 64.3351V131.069H93.7766V64.3354C93.7766 62.4084 92.216 60.8462 90.2874 60.8462C88.3588 60.8462 86.7983 62.4087 86.7983 64.3354V134.122C86.7983 136.049 88.7951 138.047 90.7237 138.047H111.66C113.588 138.047 114.713 136.049 114.713 134.122V64.3354C114.712 62.4084 113.152 60.8459 111.223 60.8459Z" fill="white"/>
<path d="M149.605 60.8459C147.677 60.8459 146.116 62.4084 146.116 64.3351V131.069H132.159V64.3354C132.159 62.4084 130.598 60.8462 128.67 60.8462C126.741 60.8462 125.181 62.4087 125.181 64.3354V134.122C125.181 136.049 127.177 138.047 129.106 138.047H150.042C151.971 138.047 153.095 136.049 153.095 134.122V64.3354C153.095 62.4084 151.534 60.8459 149.605 60.8459Z" fill="white"/>
<path d="M161.927 47.1903L83.4174 12.2971C82.5109 11.8951 81.4888 11.8951 80.5823 12.2971L2.07274 47.1903C0.566631 47.8582 -0.2649 49.7086 0.0759124 51.3201C0.420248 52.9319 1.84115 54.3035 3.49044 54.3035H160.51C162.159 54.3035 163.58 52.9319 163.924 51.3201C164.265 49.7083 163.433 47.8582 161.927 47.1903ZM19.9318 47.3249L82 19.7392L144.068 47.3249H19.9318V47.3249Z" fill="white"/>
<path d="M156.584 145.026H6.54333V152.005H156.584V145.026Z" fill="white"/>
</g>
<defs>
<clipPath id="clip0_9_118">
<rect width="164" height="164" fill="white"/>
</clipPath>
</defs>
</svg>
