<svg width="357" height="460" viewBox="0 0 357 460" fill="none" xmlns="http://www.w3.org/2000/svg">
<path d="M124.216 404.514C124.215 404.634 124.207 404.753 124.207 404.873C124.207 434.951 148.59 459.334 178.668 459.334C208.746 459.334 233.129 434.951 233.129 404.873C233.129 404.753 233.121 404.634 233.12 404.514H124.216Z" fill="#8F8F8F"/>
<path d="M352.549 336.438L303.534 264.436C303.534 242.395 303.534 188.538 303.534 174.606C303.534 114.025 260.39 63.527 203.153 52.147V24.485C203.152 10.963 192.19 0 178.667 0C165.144 0 154.182 10.963 154.182 24.485V52.148C96.945 63.529 53.801 114.027 53.801 174.607C53.801 198.323 53.801 250.691 53.801 264.437L4.78598 336.439C-0.377016 344.023 -0.923014 353.84 3.36699 361.95C7.65699 370.06 16.079 375.132 25.254 375.132H332.08C341.255 375.132 349.677 370.059 353.967 361.95C358.258 353.839 357.711 344.022 352.549 336.438Z" fill="#8F8F8F"/>
</svg>
