<svg width="200" height="183" viewBox="0 0 200 183" fill="none" xmlns="http://www.w3.org/2000/svg">
<path d="M188 0.000488281H12.0005C8.81898 0.00404295 5.7688 1.26947 3.51914 3.51913C1.26947 5.7688 0.00404683 8.81898 0.000492157 12.0005V170.824C-0.013347 173.112 0.633515 175.356 1.86342 177.285C3.09333 179.215 4.854 180.749 6.93408 181.702C8.52946 182.451 10.2695 182.84 12.0317 182.843C14.8496 182.838 17.5743 181.834 19.7222 180.01L51.9253 152.938C52.6467 152.333 53.5579 152.001 54.4995 152H188.001C191.182 151.997 194.232 150.732 196.482 148.482C198.732 146.232 199.997 143.182 200.001 140V12.0005C199.997 8.81897 198.732 5.76879 196.482 3.51912C194.232 1.26946 191.182 0.00403766 188 0.000488281V0.000488281ZM192 140C191.999 141.061 191.578 142.078 190.828 142.828C190.078 143.578 189.061 143.999 188 144H54.4995C51.675 144.002 48.9413 144.999 46.7778 146.814L46.7768 146.815L14.5737 173.886C13.9907 174.376 13.2798 174.69 12.5247 174.789C11.7697 174.889 11.0018 174.772 10.3114 174.45C9.62095 174.128 9.03672 173.616 8.62735 172.974C8.21799 172.332 8.00051 171.586 8.00049 170.824V12.0005C8.00162 10.94 8.42341 9.92321 9.17331 9.17331C9.92321 8.42341 10.94 8.00162 12.0005 8.00049H188C189.061 8.00162 190.078 8.42341 190.828 9.17331C191.578 9.92321 191.999 10.94 192 12.0005V140ZM59.9995 75.998C59.9995 77.5803 59.5303 79.127 58.6512 80.4426C57.7722 81.7582 56.5228 82.7836 55.061 83.3891C53.5992 83.9946 51.9906 84.153 50.4388 83.8443C48.8869 83.5356 47.4615 82.7737 46.3426 81.6549C45.2238 80.5361 44.4619 79.1106 44.1532 77.5588C43.8445 76.0069 44.003 74.3984 44.6085 72.9366C45.214 71.4748 46.2393 70.2253 47.5549 69.3463C48.8705 68.4672 50.4172 67.998 51.9995 67.998C54.1205 68.0005 56.1539 68.8441 57.6537 70.3439C59.1535 71.8436 59.9971 73.8771 59.9995 75.998H59.9995ZM107.999 75.998C107.999 77.5803 107.53 79.127 106.651 80.4426C105.772 81.7582 104.523 82.7836 103.061 83.3891C101.599 83.9946 99.9906 84.153 98.4388 83.8443C96.8869 83.5356 95.4615 82.7737 94.3426 81.6549C93.2238 80.5361 92.4619 79.1106 92.1532 77.5588C91.8445 76.0069 92.003 74.3984 92.6085 72.9366C93.214 71.4748 94.2393 70.2253 95.5549 69.3463C96.8705 68.4672 98.4172 67.998 99.9995 67.998C102.12 68.0005 104.154 68.8441 105.654 70.3439C107.153 71.8436 107.997 73.8771 108 75.998H107.999ZM155.999 75.998C155.999 77.5803 155.53 79.127 154.651 80.4426C153.772 81.7582 152.523 82.7836 151.061 83.3891C149.599 83.9946 147.991 84.153 146.439 83.8443C144.887 83.5356 143.461 82.7737 142.343 81.6549C141.224 80.5361 140.462 79.1106 140.153 77.5588C139.845 76.0069 140.003 74.3984 140.608 72.9366C141.214 71.4748 142.239 70.2253 143.555 69.3463C144.871 68.4672 146.417 67.998 147.999 67.998C150.12 68.0005 152.154 68.8441 153.654 70.3439C155.153 71.8436 155.997 73.8771 156 75.998H155.999Z" fill="white"/>
</svg>
