<svg width="385" height="265" viewBox="0 0 385 265" fill="none" xmlns="http://www.w3.org/2000/svg">
<path d="M12.03 24.212H372.939C379.58 24.212 384.969 18.822 384.969 12.182C384.969 5.54101 379.579 0.152008 372.939 0.152008H12.03C5.39 0.152008 0 5.54101 0 12.182C0 18.823 5.39 24.212 12.03 24.212Z" fill="white"/>
<path d="M372.939 120.455H12.03C5.389 120.455 0 125.845 0 132.485C0 139.125 5.39 144.515 12.03 144.515H372.939C379.58 144.515 384.969 139.125 384.969 132.485C384.969 125.845 379.58 120.455 372.939 120.455Z" fill="white"/>
<path d="M372.939 240.758H12.03C5.389 240.758 0 246.148 0 252.788C0 259.429 5.39 264.818 12.03 264.818H372.939C379.58 264.818 384.969 259.428 384.969 252.788C384.97 246.147 379.58 240.758 372.939 240.758Z" fill="white"/>
</svg>
