<svg width="44" height="37" viewBox="0 0 44 37" fill="none" xmlns="http://www.w3.org/2000/svg">
<path d="M24.2958 32.0834C23.736 34.8411 21.2979 36.9167 18.375 36.9167C15.4521 36.9167 13.014 34.8411 12.4542 32.0834H1.45833C0.790989 32.0834 0.25 31.5424 0.25 30.875C0.25 30.2077 0.790989 29.6667 1.45833 29.6667H12.4542C13.014 26.909 15.4521 24.8334 18.375 24.8334C21.2979 24.8334 23.736 26.909 24.2958 29.6667H42.5417C43.209 29.6667 43.75 30.2077 43.75 30.875C43.75 31.5424 43.209 32.0834 42.5417 32.0834H24.2958ZM38.7958 20C38.236 22.7577 35.7979 24.8334 32.875 24.8334C29.9521 24.8334 27.514 22.7577 26.9542 20H1.45833C0.790989 20 0.25 19.459 0.25 18.7917C0.25 18.1243 0.790989 17.5834 1.45833 17.5834H26.9542C27.514 14.8256 29.9521 12.75 32.875 12.75C35.7979 12.75 38.236 14.8256 38.7958 17.5834H42.5417C43.209 17.5834 43.75 18.1243 43.75 18.7917C43.75 19.459 43.209 20 42.5417 20H38.7958ZM17.0458 7.91669C16.486 10.6744 14.0479 12.75 11.125 12.75C8.20209 12.75 5.76397 10.6744 5.20419 7.91669H1.45833C0.790989 7.91669 0.25 7.3757 0.25 6.70835C0.25 6.04101 0.790989 5.50002 1.45833 5.50002H5.20419C5.76397 2.74231 8.20209 0.666687 11.125 0.666687C14.0479 0.666687 16.486 2.74231 17.0458 5.50002H42.5417C43.209 5.50002 43.75 6.04101 43.75 6.70835C43.75 7.3757 43.209 7.91669 42.5417 7.91669H17.0458ZM11.125 10.3334C13.127 10.3334 14.75 8.71039 14.75 6.70835C14.75 4.70632 13.127 3.08335 11.125 3.08335C9.12297 3.08335 7.5 4.70632 7.5 6.70835C7.5 8.71039 9.12297 10.3334 11.125 10.3334ZM32.875 22.4167C34.877 22.4167 36.5 20.7937 36.5 18.7917C36.5 16.7897 34.877 15.1667 32.875 15.1667C30.873 15.1667 29.25 16.7897 29.25 18.7917C29.25 20.7937 30.873 22.4167 32.875 22.4167ZM18.375 34.5C20.377 34.5 22 32.8771 22 30.875C22 28.873 20.377 27.25 18.375 27.25C16.373 27.25 14.75 28.873 14.75 30.875C14.75 32.8771 16.373 34.5 18.375 34.5Z" fill="white"/>
</svg>
