<svg width="244" height="233" viewBox="0 0 244 233" fill="none" xmlns="http://www.w3.org/2000/svg">
<path d="M242.949 88.714C242.067 85.999 239.72 84.02 236.895 83.61L161.915 72.71L128.385 4.76901C127.121 2.20901 124.514 0.588013 121.66 0.588013C118.805 0.588013 116.198 2.20901 114.934 4.76901L81.404 72.71L6.422 83.61C3.596 84.021 1.249 86 0.366996 88.714C-0.515004 91.429 0.219996 94.409 2.265 96.402L56.522 149.288L43.715 223.96C43.233 226.774 44.389 229.618 46.698 231.295C49.007 232.973 52.069 233.195 54.596 231.866L121.66 196.612L188.723 231.866C189.82 232.443 191.019 232.727 192.212 232.727C192.219 232.727 192.226 232.727 192.233 232.727C192.233 232.727 192.233 232.727 192.234 232.727C196.376 232.727 199.734 229.369 199.734 225.227C199.734 224.598 199.656 223.987 199.511 223.403L186.798 149.286L241.052 96.401C243.096 94.41 243.832 91.429 242.949 88.714ZM173.504 141.299C171.736 143.022 170.929 145.505 171.347 147.938L182.253 211.519L125.151 181.501C122.966 180.352 120.356 180.352 118.172 181.501L61.069 211.519L71.975 147.938C72.393 145.505 71.586 143.023 69.818 141.299L23.619 96.268L87.466 86.987C89.909 86.632 92.021 85.098 93.113 82.884L121.663 25.035L150.213 82.884C151.305 85.097 153.417 86.632 155.859 86.987L219.703 96.268L173.504 141.299Z" fill="white"/>
</svg>
